<svg width="134" height="134" viewBox="0 0 134 134" fill="none" xmlns="http://www.w3.org/2000/svg">

<path d="M28.0762 70.1094C18.8676 77.067 4.99331 96.139 23.165 116.766C45.8795 142.55 85.1695 123.519 87.0113 98.963C88.8152 74.9104 76.445 64.9639 53.9498 66.3337M53.9498 66.3337C53.5145 66.3602 53.0753 66.391 52.6325 66.4259C43.7922 66.4259 40.7636 73.3835 40.3543 76.8623C40.1497 78.4994 40.7227 81.8964 44.6517 82.3875C49.5629 83.0014 53.8603 77.4763 53.8603 71.3372C53.8603 70.5376 53.8499 68.7798 53.9498 66.3337ZM53.9498 66.3337C54.6169 50.0003 60.2031 2.97941 106.656 5.64914M85.7294 25.5772C103.21 30.0319 130.687 47.5977 113.626 85.5042C113.106 86.6579 111.241 86.3285 111 85.0866C109.574 77.7418 105.23 66.7606 94.992 59.6729C82.8341 51.2559 82.6973 34.7507 84.3017 26.4776C84.43 25.8162 85.0766 25.4108 85.7294 25.5772Z" stroke="white" stroke-width="7.36688" stroke-linecap="round"/>

    <style>
        path {
            stroke: black;
        }
        @media (prefers-color-scheme: dark) {
            path { stroke: white; }
        }
    </style>
</svg>
